<svg id="レイヤー_1" data-name="レイヤー 1" xmlns="http://www.w3.org/2000/svg" viewBox="0 0 960 150"><defs><style>.cls-1{fill:#fff;}</style></defs><title>banner</title><rect class="cls-1" x="2" y="2" width="956" height="146"/><path d="M956,4V146H4V4H956m4-4H0V150H960V0Z"/><rect x="263.32" y="2" width="694.68" height="146"/><path d="M956,4V146H265.32V4H956m4-4H261.32V150H960V0Z"/><path class="cls-1" d="M349.78,35c3.51,0,4.91-.12,6.9-.24a13.52,13.52,0,1,1,13.46,13.46,17.24,17.24,0,0,1-2.23-.23c-9.47,38.26-30.19,62.14-67.16,77.58-3.05-6.08-5-8.77-10.3-13.92,32.41-10.07,53.59-31.83,61.08-63h-55.7c-8.66,0-10.88.12-14.74.7V34.17c4.21.7,7,.82,15,.82Zm12.75-.35a7.67,7.67,0,1,0,15.33,0,7.67,7.67,0,0,0-15.33,0Z"/><path class="cls-1" d="M415.89,113.27v8.2h-15.1a78.43,78.43,0,0,0,.47-10.07V44.35a77.85,77.85,0,0,0-.47-9.83c2.81.23,5.27.35,9.95.35h66.47c5,0,7.13-.12,9.82-.35-.23,3-.35,5.38-.35,9.71v66.94a80.32,80.32,0,0,0,.47,10.18H472.06v-8.08Zm56.17-65.18H415.89V99.93h56.17Z"/><path class="cls-1" d="M606,41.19a17.29,17.29,0,0,0-2,5.27c-5.85,22.35-12.76,36.39-24,49-11.47,12.87-24,21.41-43.53,29.84-3.28-6.32-4.8-8.54-10.3-13.93a95.2,95.2,0,0,0,25.63-11.93c18.25-11.82,29.72-28.32,35.45-51h-55.7c-7.84,0-10.53.11-14.74.7V33.94c4.56.7,7,.81,15,.81h53.71c6.55,0,8.89-.23,12.52-1.17Z"/><path class="cls-1" d="M700.58,53a23.39,23.39,0,0,0-4,3.86,156.83,156.83,0,0,1-21.77,19.19v39.79a68.71,68.71,0,0,0,.59,11.23l-15.1-.11a69.92,69.92,0,0,0,.59-11.12V84.49c-10.54,6.2-19,9.94-33.12,14.86a47.9,47.9,0,0,0-7.26-12.17,125.4,125.4,0,0,0,27.74-10.53,133.57,133.57,0,0,0,33.23-23.76c3.86-3.86,5.27-5.5,7.14-8.42Z"/><path class="cls-1" d="M723.63,67.05c5.15.7,7.37.82,19,.82H805c11.58,0,13.81-.12,19-.82V83.32c-4.68-.59-6-.59-19.08-.59H742.71c-13.11,0-14.4,0-19.08.59Z"/><path class="cls-1" d="M873.18,29.37c-.47,3.28-.47,3.28-1.17,26.21s-3.4,36.05-9.48,48.1c-4,8.07-8.43,14-16.15,21.65-4.56-5.85-6.32-7.61-11.82-11.35a48.07,48.07,0,0,0,12.05-13.46C855,87.06,857.73,72,857.73,39.2c0-6.43,0-7.49-.47-10.65Zm31-1.4a63.12,63.12,0,0,0-.82,11.11l-.59,66.59c8.19-3.86,12.88-7.37,17.91-13.34a57.37,57.37,0,0,0,11.47-21.42,48.65,48.65,0,0,0,11,11c-4.8,11.59-10.89,20.36-18.61,27.27-6.67,5.73-12.76,9.24-24.93,14a52.55,52.55,0,0,0-5,2.11l-7.49-8c.82-3.39.94-6,1.06-12.4l.58-66V35.46a50.87,50.87,0,0,0-.47-7.73Z"/><path d="M34.55,33.94A69.23,69.23,0,0,0,33.85,22H47.77a68.56,68.56,0,0,0-.7,11.82v9.59h2.58a56.85,56.85,0,0,0,8.54-.58V55.47c-4-.35-5.85-.47-8.43-.47H47.07V72.9c4.1-1.28,5.74-1.75,11.47-3.74V80.28c-9.13,3.39-9.13,3.39-11.47,4.21v33.58c0,5-1.87,8.43-5.38,9.6-2.34.82-5.85,1.29-10.77,1.29-2,0-3.74-.12-7.72-.24a46.27,46.27,0,0,0-2.57-12.52,57.37,57.37,0,0,0,10.41.94c2.81,0,3.51-.71,3.51-3.28V88.58c-2,.59-3.63,1.06-4.56,1.29a65.76,65.76,0,0,0-8.78,2.69L19,79.22c4.56-.35,7.72-.93,15.56-2.92V55h-5.5a57.63,57.63,0,0,0-8.42.58V42.83a53.63,53.63,0,0,0,8.66.58h5.26Zm37.33,3.74a106.7,106.7,0,0,0-12.4.47V25.28a85.34,85.34,0,0,0,12.75.7h41.54a87.27,87.27,0,0,0,12.88-.7V38.15a112.71,112.71,0,0,0-12.29-.47H97.62V48.09h15.1a70.14,70.14,0,0,0,11-.58V59.56a70.22,70.22,0,0,0-11-.58H97.62v10.3h15.92a68.18,68.18,0,0,0,11-.59v12a74.31,74.31,0,0,0-11-.58H97.62V91h17.79a80.94,80.94,0,0,0,12.41-.58v13a127.43,127.43,0,0,0-12.76-.59H97.62V115.5a102.28,102.28,0,0,0,.71,14.27h-14c.36-2.69.36-2.69.59-14.27V102.86H69a126.36,126.36,0,0,0-12.64.59v-13A78.91,78.91,0,0,0,68.6,91H84.87V80.16H72.93a73.41,73.41,0,0,0-11,.58v-12a66.53,66.53,0,0,0,11,.59H84.87V59H72.93a69.3,69.3,0,0,0-11,.58V47.51a69.38,69.38,0,0,0,11,.58H84.87V37.68Z"/><path d="M189.36,86.71a51.54,51.54,0,0,0-5.73-9.13c9.71-2.34,15.68-4.79,23.29-9.59a53.72,53.72,0,0,1-7-10.42A64.14,64.14,0,0,1,194.75,63a40.93,40.93,0,0,0-5.5-8v9.36a89.24,89.24,0,0,0,.35,9.36,82.51,82.51,0,0,0-8.78-.35H155.43c-2.7,11.12-5.62,16.85-12.76,24.81a37.13,37.13,0,0,0-7.84-11.47c8.08-8.54,11-17.67,11-34.4a75.81,75.81,0,0,0-.47-9.71,93.7,93.7,0,0,0,10.77.46h22.93a87.74,87.74,0,0,0,10.65-.46,60.27,60.27,0,0,0-.46,9.12c7.37-6.9,13.92-20.24,15.21-30.89l13.1,1.87c-.46,1.17-.46,1.17-1.17,3.4-.93,2.57-1.87,5.14-2.92,7.95h19.89a79.63,79.63,0,0,0,11.82-.7v12.4a55.53,55.53,0,0,0-8.43-.7C234.06,55,230.2,62.14,224,68.46c6.55,4.56,13.11,7.6,22.23,10.53-2.92,4.56-3.74,6.2-5.85,12.29A89.14,89.14,0,0,1,215,76.18a80.16,80.16,0,0,1-20.71,10.53h24.1a88.2,88.2,0,0,0,10.89-.47,85,85,0,0,0-.47,10.89v20.24a72.29,72.29,0,0,0,.7,11.94H216.16v-4.92H165v4.92H151.68a99.43,99.43,0,0,0,.7-12.06V97.13a70.46,70.46,0,0,0-.58-10.89,92.32,92.32,0,0,0,11.12.47Zm-50.2-61.2a83.77,83.77,0,0,0,12.17.7h32.42a73.18,73.18,0,0,0,10.88-.58v11.7A61.79,61.79,0,0,0,184,36.74H151.33a80.42,80.42,0,0,0-12.17.59Zm38.62,38.15V52.89H157.42v4a64.35,64.35,0,0,1-.36,6.79ZM165,113h51.14V98H165Zm43.3-68c-.7,1.29-.94,1.64-1.64,2.81a42.07,42.07,0,0,0,8.78,13.22c4.44-4.79,6.67-9,8.77-16Z"/></svg>